<mxfile host="65bd71144e">
    <diagram id="vVmZL1l-R3FmnO_8yQQg" name="Page-1">
        <mxGraphModel dx="1063" dy="1027" grid="1" gridSize="10" guides="1" tooltips="1" connect="1" arrows="1" fold="1" page="1" pageScale="1" pageWidth="850" pageHeight="1100" math="0" shadow="0">
            <root>
                <mxCell id="0"/>
                <mxCell id="1" parent="0"/>
                <mxCell id="6" style="edgeStyle=none;html=1;" edge="1" parent="1" source="2" target="4">
                    <mxGeometry relative="1" as="geometry"/>
                </mxCell>
                <mxCell id="7" style="edgeStyle=none;html=1;exitX=1;exitY=0.5;exitDx=0;exitDy=0;entryX=0.5;entryY=0;entryDx=0;entryDy=0;" edge="1" parent="1" source="2" target="5">
                    <mxGeometry relative="1" as="geometry">
                        <mxPoint x="600" y="150" as="targetPoint"/>
                        <Array as="points">
                            <mxPoint x="590" y="150"/>
                        </Array>
                    </mxGeometry>
                </mxCell>
                <mxCell id="8" style="edgeStyle=none;html=1;entryX=0.5;entryY=0;entryDx=0;entryDy=0;" edge="1" parent="1" source="2" target="3">
                    <mxGeometry relative="1" as="geometry">
                        <mxPoint x="260" y="150" as="targetPoint"/>
                        <Array as="points">
                            <mxPoint x="260" y="150"/>
                        </Array>
                    </mxGeometry>
                </mxCell>
                <mxCell id="2" value="Screens" style="rounded=0;whiteSpace=wrap;html=1;" vertex="1" parent="1">
                    <mxGeometry x="365" y="120" width="120" height="60" as="geometry"/>
                </mxCell>
                <mxCell id="3" value="Home Screen" style="rounded=0;whiteSpace=wrap;html=1;" vertex="1" parent="1">
                    <mxGeometry x="200" y="260" width="120" height="60" as="geometry"/>
                </mxCell>
                <mxCell id="4" value="Light Screen" style="rounded=0;whiteSpace=wrap;html=1;" vertex="1" parent="1">
                    <mxGeometry x="365" y="260" width="120" height="60" as="geometry"/>
                </mxCell>
                <mxCell id="5" value="Calendar Screen" style="rounded=0;whiteSpace=wrap;html=1;" vertex="1" parent="1">
                    <mxGeometry x="530" y="260" width="120" height="60" as="geometry"/>
                </mxCell>
            </root>
        </mxGraphModel>
    </diagram>
</mxfile>